<svg width="512" xmlns="http://www.w3.org/2000/svg" height="512" viewBox="0 0 512 512" xmlns:xlink="http://www.w3.org/1999/xlink" enable-background="new 0 0 512 512">
<path fill="#faef88" d="m342.5,284.034v-.025l42-24.713v-49.422l-41.833-24.686-44.125,24.733 43.958-24.687v-49.422l-44-24.682-43-24.699-42-24.208-44,24.234-42,24.68v49.197 .225 49.052 .147 49.132 .145 49.247 .03 49.395l42,24.71v-.022 .128 49.425l42,24.712v-.024l.011-.007 43.989,24.706v-.021l.021-.012 42.979,24.698v-.026l42-24.71v-.255-.021l42-24.713v-49.424l-42-24.193-41.927,24.219h-.073l-.188,.109-42.405-24.496-.053,.029-42.679-24.657 .324-.182v-49.392-.03-49.247-.147-49.128-.145-48.996-.013l42,24.71v-.028l.003-.002 42.998,24.708v49.351l44,24.713zm-44,172.426l.078,.046-.078,.046v-.092z"/>
<path fill="#92d4f1" d="m169.5,382.523 43.589-24.711 42.774,24.711-44.363,24.712z"/>
<path fill="#c5d77a" d="m169.5,382.523 0,49.425 42,24.712 0-49.425z"/>
<path fill="#92d4f1" d="m211.5,456.636 0-49.424 44-24.708 0,49.422z"/>
<path fill="#d19ec4" d="m211.5,407.235 44.407-24.746 42.775,24.71-43.182,24.727z"/>
<path fill="#f09255" d="m211.5,407.199 0,49.424 44,24.712 0-49.42z"/>
<path fill="#92d4f1" d="m255.5,481.313 0-49.425 43-24.715 0,49.427z"/>
<path fill="#c5d77a" d="m255.5,431.926 43-25.05 42.979,24.989-42.778,24.71z"/>
<path fill="#ec7c82" d="m255.5,431.865 0,49.425 43,24.71 0-49.425z"/>
<path fill="#faef88" d="m298.5,505.974 0-49.422 42-24.712 0,49.424z"/>
<path fill="#92d4f1" d="m127.5,308.283 44.054-24.714 41.946,24.689-44,24.737z"/>
<path fill="#f09255" d="m127.5,308.283 0,49.425 42,24.71 0-49.423z"/>
<path fill="#c5d77a" d="m169.5,382.396 0-49.426 44-24.712 0,49.422z"/>
<path fill="#faef88" d="m127.5,258.892 42-25.543 44,25.662-44,24.593z"/>
<path fill="#d19ec4" d="m127.5,258.892 0,49.421 42,24.715 0-49.424z"/>
<path fill="#92d4f1" d="m169.5,333.002 0-49.427 44-24.712 0,49.425z"/>
<path fill="#faef88" d="m298.573,406.876 41.927-24.219 42,24.194-41.149,24.738z"/>
<path fill="#92d4f1" d="m298.5,406.876 0,49.423 42,24.71 0-49.42z"/>
<path fill="#f09255" d="m340.5,480.987 0-49.423 42-24.713 0,49.423z"/>
<path fill="#d19ec4" d="m128.864,209.612 42.777-24.71 41.859,24.689-44,23.758z"/>
<path fill="#faef88" d="m127.5,209.612 0,49.424 42,24.568 0-50.255z"/>
<g fill="#ec7c82">
<path d="m169.5,283.604 0-50.255 44-23.758 0,49.42z"/>
<path d="m128.881,160.335 40.619-24.452 44,24.426-43.914,23.664z"/>
</g>
<path fill="#92d4f1" d="m127.5,160.335 0,49.425 42,23.589 .086-49.376z"/>
<g fill="#d19ec4">
<path d="m169.5,233.349 .086-49.376 43.914-23.664 0,49.426z"/>
<path d="m127.5,111.138 42-24.68 44,24.654-44,24.771z"/>
</g>
<path fill="#c5d77a" d="m127.5,111.138 0,49.423 42.086,23.412-.086-48.09z"/>
<path fill="#faef88" d="m169.586,183.973-.086-48.09 44-24.771 0,49.423z"/>
<path fill="#92d4f1" d="m169.5,86.458 44-24.234 42,24.209-42,24.679z"/>
<path fill="#f09255" d="m169.5,86.458 0,49.425 44,24.712 0-49.424z"/>
<path fill="#c5d77a" d="m213.5,160.571 0-49.428 42-24.71 0,49.424z"/>
<path fill="#d19ec4" d="m213.5,111.112 42-24.679 43,24.699-43,24.725z"/>
<path fill="#faef88" d="m213.5,111.153 0,49.429 42,24.71 0-49.424z"/>
<path fill="#92d4f1" d="m255.5,185.264 0-49.422 43-24.71 0,49.422z"/>
<path fill="#c5d77a" d="m255.5,135.857 43-24.725 44,24.681-44,24.741z"/>
<path fill="#92d4f1" d="m255.5,135.837 0,49.423 43,24.71 0-49.423z"/>
<path fill="#f09255" d="m298.5,209.945 0-49.419 44-24.713 0,49.422z"/>
<path fill="#ec7c82" d="m298.5,209.945 44.167-24.757 41.833,24.686-42,24.738z"/>
<path fill="#d19ec4" d="m298.5,209.898 0,49.422 44,24.714 0-49.422z"/>
<path fill="#92d4f1" d="m342.5,284.009 0-49.425 42-24.71 0,49.422z"/>
<path fill="none" d="m0,0h512v512h-512z"/>
</svg>
