<svg width="512" xmlns="http://www.w3.org/2000/svg" height="512" viewBox="0 0 512 512" xmlns:xlink="http://www.w3.org/1999/xlink" enable-background="new 0 0 512 512">
<path fill="#faef88" d="m384.34,209.66l.008-.004-.008-.004v-.021l-.019,.011-42.731-24.686v-49.312l.008-.005-.008-.005v-.023l-.021,.012-42.751-24.698-.06,.035-42.691-24.665-.043,.025v-.013l.013-.007-.013-.007v-.017l-.014,.008-42.75-24.694-.019,.011-42.642-24.634-42.779,24.712v49.424l42.654,24.64v49.362l.002,.001v49.367l-.02,.011v49.334l-.032,.019v49.353 .017l-42.773,24.709v49.422l42.777,24.712v-.029l.055-.032 42.618,24.618v.018l42.777,24.716v-.035l.023-.014 42.771,24.708v-.032l42.727-24.681 .072,.042v-.032l42.766-24.706v-49.371l.035-.021v-49.396l.006-.003-.003-.002 .009-.005v-49.383l.025-.015v-49.325l.031-.019v-49.391zm-85.717,197.52l-42.655-24.644v-.01l.005-.003-.005-.003v-49.289-.039l.009-.005-.009-.005v-.021-49.263l.035-.021v-49.365l.021-.012v-49.384l.043,.025v-.029l.036-.021 42.689,24.665v49.22l-.029,.018v49.388l-.027,.016v49.396l-.01,.006v49.37l-.01,.006-.045-.025-.048,.029z"/>
<path fill="#d19ec4" d="m127.652,357.913 42.778-24.712 42.778,24.712-42.778,24.712z"/>
<path fill="#faef88" d="m127.652,357.913 0,49.422 42.778,24.712 0-49.422z"/>
<path fill="#92d4f1" d="m170.423,432.021 0-49.421 42.777-24.715 0,49.424z"/>
<path fill="#d19ec4" d="m170.418,382.523 42.778-24.714 42.777,24.714-42.777,24.71z"/>
<path fill="#c5d77a" d="m170.418,382.523 0,49.424 42.778,24.71 0-49.424z"/>
<path fill="#92d4f1" d="m213.187,456.636 0-49.424 42.777-24.714 0,49.424z"/>
<path fill="#faef88" d="m170.425,333.188 42.775-24.709 42.777,24.709-42.777,24.712z"/>
<path fill="#92d4f1" d="m170.425,333.188 0,49.426 42.775,24.712 0-49.426z"/>
<g fill="#f09255">
<path d="m213.191,407.299 0-49.422 42.777-24.715 0,49.424z"/>
<path d="m170.425,283.835 42.777-24.714 42.775,24.714-42.775,24.71z"/>
</g>
<path fill="#ec7c82" d="m170.425,283.835 0,49.423 42.777,24.714 0-49.427z"/>
<path fill="#c5d77a" d="m213.196,357.945 0-49.424 42.772-24.714 0,49.424z"/>
<path fill="#d19ec4" d="m170.458,234.482 42.777-24.712 42.777,24.712-42.777,24.712z"/>
<path fill="#faef88" d="m170.458,234.482 0,49.424 42.777,24.713 0-49.425z"/>
<path fill="#92d4f1" d="m213.228,308.595 0-49.427 42.775-24.71 0,49.421z"/>
<path fill="#ec7c82" d="m170.477,185.104 42.777-24.712 42.775,24.712-42.775,24.711z"/>
<path fill="#92d4f1" d="m170.477,185.104 0,49.424 42.777,24.712 0-49.425z"/>
<path fill="#f09255" d="m213.243,259.214 0-49.422 42.782-24.708 0,49.418z"/>
<path fill="#ec7c82" d="m127.821,61.677 42.78-24.712 42.776,24.712-42.776,24.715z"/>
<path fill="#d19ec4" d="m127.821,61.677 0,49.425 42.78,24.711 0-49.421z"/>
<path fill="#92d4f1" d="m170.592,135.788 0-49.423 42.777-24.712 0,49.42z"/>
<path fill="#f09255" d="m170.475,135.682 42.777-24.713 42.773,24.713-42.773,24.71z"/>
<path fill="#ec7c82" d="m170.475,135.682 0,49.422 42.777,24.711 0-49.423z"/>
<path fill="#c5d77a" d="m213.239,209.792 0-49.424 42.777-24.715 0,49.431z"/>
<path fill="#d19ec4" d="m213.103,407.199 42.776-24.715 42.777,24.715-42.777,24.712z"/>
<path fill="#faef88" d="m213.103,407.199 0,49.422 42.776,24.716 0-49.426z"/>
<path fill="#92d4f1" d="m255.871,481.307 0-49.422 42.775-24.712 0,49.427z"/>
<path fill="#c5d77a" d="m255.897,431.861 42.775-24.71 42.779,24.71-42.779,24.714z"/>
<path fill="#ec7c82" d="m255.897,431.861 0,49.424 42.775,24.715 0-49.425z"/>
<path fill="#faef88" d="m298.666,505.972 0-49.425 42.777-24.71 0,49.425z"/>
<path fill="#92d4f1" d="m298.689,407.192 42.782-24.712 42.773,24.712-42.773,24.714z"/>
<path fill="#f09255" d="m298.689,407.192 0,49.424 42.782,24.713 0-49.423z"/>
<path fill="#c5d77a" d="m341.459,481.303 0-49.424 42.777-24.713 0,49.425z"/>
<path fill="#92d4f1" d="m170.479,86.298 42.782-24.71 42.777,24.71-42.777,24.715z"/>
<path fill="#f09255" d="m170.479,86.298 0,49.429 42.782,24.71 0-49.424z"/>
<path fill="#c5d77a" d="m213.252,160.411 0-49.427 42.773-24.71 0,49.425z"/>
<path fill="#faef88" d="m298.727,357.801 42.773-24.71 42.777,24.71-42.777,24.712z"/>
<path fill="#92d4f1" d="m298.727,357.801 0,49.424 42.773,24.712 0-49.424z"/>
<path fill="#faef88" d="m341.494,431.911 0-49.425 42.777-24.709 0,49.422z"/>
<path fill="#d19ec4" d="m213.293,111.008 42.775-24.714 42.778,24.714-42.778,24.71z"/>
<path fill="#faef88" d="m213.293,111.008 0,49.425 42.775,24.71 0-49.425z"/>
<path fill="#92d4f1" d="m256.059,185.119 0-49.425 42.777-24.712 0,49.422z"/>
<path fill="#ec7c82" d="m256.046,135.638 42.772-24.714 42.78,24.714-42.78,24.71z"/>
<path fill="#92d4f1" d="m256.046,135.638 0,49.422 42.772,24.712 0-49.424z"/>
<path fill="#f09255" d="m298.812,209.747 0-49.425 42.778-24.712 0,49.424z"/>
<path fill="#ec7c82" d="m298.736,308.398 42.778-24.716 42.777,24.716-42.777,24.707z"/>
<path fill="#d19ec4" d="m298.736,308.398 0,49.422 42.778,24.709 0-49.424z"/>
<path fill="#f09255" d="m341.506,382.508 0-49.424 42.777-24.71 0,49.42z"/>
<g fill="#faef88">
<path d="m298.764,258.995 42.775-24.707 42.777,24.707-42.777,24.714z"/>
<path d="m298.764,258.995 0,49.425 42.775,24.714 0-49.425z"/>
</g>
<path fill="#92d4f1" d="m341.531,333.105 0-49.423 42.778-24.71 0,49.424z"/>
<path fill="#d19ec4" d="m298.793,209.655 42.777-24.712 42.778,24.712-42.778,24.71z"/>
<path fill="#c5d77a" d="m298.793,209.655 0,49.425 42.777,24.709 0-49.424z"/>
<path fill="#ec7c82" d="m341.562,283.764 0-49.422 42.778-24.713 0,49.423z"/>
<path fill="none" d="m0,0h512v512h-512z"/>
</svg>
