<svg width="512" xmlns="http://www.w3.org/2000/svg" height="512" viewBox="0 0 512 512" xmlns:xlink="http://www.w3.org/1999/xlink" enable-background="new 0 0 512 512">
<path fill="#faef88" d="m384.299,431.871 .013-.008-.013-.008 0-.015-.014,.008-42.719-24.677 0-.011 .008-.004-.008-.004 0-.017-.014,.009-42.747-24.692 .004-.002-.008-.005 0-.021-.019,.011-42.749-24.699-.05,.029 0-.018-.02,.012-42.725-24.686 0-49.21 .017,.01 0-.013 42.769,24.709 0-.017 42.755,24.695 0-.027 42.768-24.706 0-49.394 .01-.005-.01-.005 0-.021-.018,.011-42.736-24.687 0-.006-.006,.003-.008-.005-.013,.008-42.742-24.692-.002,.001 0-.012-.019,.011-42.713-24.677 0-49.379 .011-.007-.011-.006 0-.001 42.656,24.643 0-.028 .034-.02 0,.044 42.776,24.71 0-.025 .035-.021 42.717,24.678 0-.03 42.769-24.708 0-49.394 .008-.004-.008-.005 0-.023-.019,.011-42.75-24.695-.059,.034-42.693-24.662-.041,.024 0-.015 .008-.005-.008-.005 0-.021-.019,.011-42.75-24.699-.021,.012-42.626-24.625 0-.004-.003,.002-.01-.006-.016,.009-42.744-24.695-42.775,24.714 0,49.375-.011,.006 0,49.424 .009,.005 0,49.363-.02,.011 0,49.332-.032,.019 0,49.351-.005,.003 0,49.333-.004,.003 0,49.422 42.749,24.693 0,.004 42.779,24.71 0-.027 .041-.025 0,.017 42.765,24.707 0,.001 42.734,24.686 0,.022 42.777,24.712 0-.029 42.766-24.707z"/>
<path fill="#d19ec4" d="m127.688,333.078 42.777-24.715 42.777,24.715-42.777,24.707z"/>
<path fill="#ec7c82" d="m127.688,333.078 0,49.422 42.777,24.71 0-49.425z"/>
<g fill="#faef88">
<path d="m170.459,407.188 0-49.424 42.777-24.714 0,49.425z"/>
<path d="m127.692,283.742 42.778-24.712 42.777,24.712-42.777,24.713z"/>
</g>
<path fill="#f09255" d="m127.692,283.742 0,49.422 42.778,24.715 0-49.424z"/>
<path fill="#92d4f1" d="m170.463,357.854 0-49.427 42.775-24.71 0,49.424z"/>
<path fill="#f09255" d="m127.697,234.388 42.773-24.713 42.777,24.713-42.777,24.712z"/>
<path fill="#c5d77a" d="m127.697,234.388 0,49.424 42.773,24.711 0-49.423z"/>
<path fill="#ec7c82" d="m170.463,308.498 0-49.422 42.775-24.715 0,49.424z"/>
<g fill="#d19ec4">
<path d="m127.729,185.037 42.777-24.712 42.778,24.712-42.778,24.712z"/>
<path d="m127.729,185.037 0,49.422 42.777,24.715 0-49.425z"/>
</g>
<path fill="#f09255" d="m170.498,259.145 0-49.424 42.779-24.71 0,49.427z"/>
<path fill="#ec7c82" d="m127.749,135.658 42.777-24.712 42.775,24.712-42.775,24.712z"/>
<path fill="#92d4f1" d="m127.749,135.658 0,49.425 42.777,24.711 0-49.424z"/>
<path fill="#faef88" d="m170.515,209.769 0-49.42 42.775-24.717 0,49.422z"/>
<path fill="#f09255" d="m127.74,86.234 42.777-24.714 42.777,24.714-42.777,24.712z"/>
<path fill="#ec7c82" d="m127.74,86.234 0,49.424 42.777,24.712 0-49.424z"/>
<g fill="#c5d77a">
<path d="m170.511,160.349 0-49.427 42.775-24.714 0,49.424z"/>
<path d="m127.751,36.853 42.775-24.714 42.777,24.714-42.777,24.71z"/>
</g>
<path fill="#faef88" d="m127.751,36.853 0,49.42 42.775,24.714 0-49.424z"/>
<path fill="#d19ec4" d="m170.521,110.965 0-49.424 42.778-24.712 0,49.424z"/>
<path fill="#ec7c82" d="m170.511,61.539 42.775-24.714 42.779,24.714-42.779,24.71z"/>
<path fill="#d19ec4" d="m170.511,61.539 0,49.422 42.775,24.712 0-49.424z"/>
<g fill="#92d4f1">
<path d="m213.277,135.647 0-49.424 42.781-24.71 0,49.42z"/>
<path d="m213.167,86.16 42.779-24.714 42.777,24.714-42.777,24.713z"/>
</g>
<path fill="#f09255" d="m213.167,86.16 0,49.42 42.779,24.714 0-49.421z"/>
<path fill="#c5d77a" d="m255.937,160.271 0-49.427 42.778-24.71 0,49.425z"/>
<path fill="#d19ec4" d="m255.98,110.866 42.776-24.71 42.777,24.71-42.777,24.714z"/>
<path fill="#faef88" d="m255.98,110.866 0,49.424 42.776,24.71 0-49.42z"/>
<path fill="#92d4f1" d="m298.748,184.979 0-49.425 42.777-24.712 0,49.425z"/>
<path fill="#ec7c82" d="m298.732,135.496 42.776-24.712 42.777,24.712-42.777,24.712z"/>
<path fill="#92d4f1" d="m298.732,135.496 0,49.424 42.776,24.712 0-49.424z"/>
<path fill="#f09255" d="m341.5,209.606 0-49.424 42.777-24.714 0,49.426z"/>
<path fill="#faef88" d="m170.437,357.775 42.779-24.714 42.776,24.714-42.776,24.709z"/>
<path fill="#c5d77a" d="m170.437,357.775 0,49.422 42.779,24.71 0-49.423z"/>
<path fill="#92d4f1" d="m213.206,431.886 0-49.425 42.777-24.714 0,49.424z"/>
<path fill="#d19ec4" d="m213.257,382.45 42.776-24.714 42.776,24.714-42.776,24.71z"/>
<path fill="#f09255" d="m213.257,382.45 0,49.422 42.776,24.713 0-49.425z"/>
<path fill="#92d4f1" d="m256.024,456.557 0-49.422 42.777-24.711 0,49.423z"/>
<path fill="#c5d77a" d="m256.022,407.156 42.777-24.708 42.775,24.708-42.775,24.714z"/>
<path fill="#ec7c82" d="m256.022,407.156 0,49.424 42.777,24.71 0-49.42z"/>
<path fill="#faef88" d="m298.789,481.267 0-49.422 42.777-24.71 0,49.42z"/>
<path fill="#92d4f1" d="m170.478,209.738 42.777-24.714 42.778,24.714-42.778,24.71z"/>
<path fill="#f09255" d="m170.478,209.738 0,49.422 42.777,24.713 0-49.425z"/>
<path fill="#c5d77a" d="m213.247,283.847 0-49.423 42.775-24.714 0,49.425z"/>
<path fill="#d19ec4" d="m213.247,234.433 42.777-24.712 42.777,24.712-42.777,24.712z"/>
<path fill="#faef88" d="m213.247,234.433 0,49.422 42.777,24.714 0-49.424z"/>
<path fill="#92d4f1" d="m256.015,308.541 0-49.424 42.778-24.71 0,49.424z"/>
<path fill="#c5d77a" d="m256.002,259.115 42.777-24.71 42.778,24.71-42.778,24.709z"/>
<path fill="#92d4f1" d="m256.002,259.115 0,49.424 42.777,24.708 0-49.423z"/>
<path fill="#f09255" d="m298.77,333.225 0-49.422 42.777-24.714 0,49.425z"/>
<path fill="#d19ec4" d="m298.756,431.863 42.777-24.712 42.779,24.712-42.779,24.715z"/>
<path fill="#faef88" d="m298.756,431.863 0,49.425 42.777,24.712 0-49.422z"/>
<path fill="#92d4f1" d="m341.525,505.975 0-49.423 42.774-24.712 0,49.424z"/>
<path fill="none" d="m0,0h512v512h-512z"/>
</svg>
