<svg width="512" xmlns="http://www.w3.org/2000/svg" height="512" viewBox="0 0 512 512" xmlns:xlink="http://www.w3.org/1999/xlink" enable-background="new 0 0 512 512">
<path fill="#faef88" d="m298.811,210.281 0-.008 42.773,24.709 0-.026 42.77-24.71 0-49.394 .006-.004-.006-.003 0-.023-.019,.011-42.751-24.699-.004,.002 0-.015-.019,.01-42.731-24.687 0-.041 .01-.005-.01-.005 0-.019-.016,.009-42.754-24.697-.069,.04-42.702-24.668-42.579,24.595-.243-.14-42.779,24.712 0,49.424 .006,.003 0,49.165-.054,.031 0,49.208 0,.214 0,49.143 0,.067 0,49.355 42.766,24.704 0,49.399 42.717,24.678 0,.005 42.777,24.712 0-.031 .006-.004 42.756,24.702 0-.031 42.733-24.688 .062,.036 0-.024 42.772-24.711 0-49.379 .032-.017 0-49.344 .07-.041 0-49.393 .01-.006-.01-.006 0-.015-.014,.008-42.755-24.7-.134,.078-42.614-24.615 0-.011-.009,.005-.007,.004-42.752-24.696-42.778,24.71 0,49.424 42.778,24.713 0-.012 42.671,24.649 0,49.222-.02,.011-.035-.021-.033,.019-42.677-24.65 0-.001 .008-.005-.008-.005 0-.02-.017,.01-42.75-24.696 0-49.346 0-.038 .009-.005-.009-.005 0-.021 0-49.141 0-.185 .009-.005-.009-.005 0-.017 0-49.115 .052-.03 0-49.016 .052,.029 0-.031 .041-.023 42.704,24.671 0,.05z"/>
<path fill="#ec7c82" d="m170.406,382.513 42.777-24.712 42.777,24.712-42.777,24.714z"/>
<path fill="#d19ec4" d="m170.406,382.513 0,49.425 42.777,24.713 0-49.424z"/>
<path fill="#92d4f1" d="m213.177,456.625 0-49.426 42.775-24.711 0,49.423z"/>
<path fill="#ec7c82" d="m213.268,259.164 42.778-24.71 42.776,24.71-42.776,24.712z"/>
<path fill="#d19ec4" d="m213.268,259.164 0,49.424 42.778,24.713 0-49.425z"/>
<path fill="#92d4f1" d="m256.041,333.276 0-49.423 42.773-24.712 0,49.423z"/>
<path fill="#c5d77a" d="m256.03,283.856 42.775-24.71 42.779,24.71-42.779,24.71z"/>
<path fill="#faef88" d="m256.03,283.856 0,49.423 42.775,24.709 0-49.422z"/>
<path fill="#ec7c82" d="m298.797,357.965 0-49.422 42.777-24.715 0,49.425z"/>
<path fill="#faef88" d="m127.64,308.413 42.779-24.714 42.775,24.714-42.775,24.712z"/>
<path fill="#92d4f1" d="m127.64,308.413 0,49.422 42.779,24.712 0-49.422z"/>
<g fill="#f09255">
<path d="m170.408,382.521 0-49.421 42.777-24.713 0,49.424z"/>
<path d="m127.64,259.056 42.779-24.712 42.775,24.712-42.775,24.712z"/>
</g>
<path fill="#ec7c82" d="m127.64,259.056 0,49.424 42.779,24.712 0-49.424z"/>
<path fill="#c5d77a" d="m170.408,333.166 0-49.422 42.777-24.71 0,49.422z"/>
<path fill="#d19ec4" d="m127.64,209.848 42.779-24.712 42.775,24.712-42.775,24.712z"/>
<path fill="#faef88" d="m127.64,209.848 0,49.422 42.779,24.712 0-49.422z"/>
<path fill="#92d4f1" d="m170.408,283.956 0-49.42 42.777-24.712 0,49.422z"/>
<path fill="#ec7c82" d="m127.694,160.493 42.777-24.712 42.775,24.712-42.775,24.71z"/>
<path fill="#92d4f1" d="m127.694,160.493 0,49.422 42.777,24.71 0-49.422z"/>
<path fill="#f09255" d="m170.462,234.604 0-49.423 42.775-24.716 0,49.424z"/>
<path fill="#faef88" d="m127.688,111.225 42.779-24.712 42.775,24.712-42.775,24.712z"/>
<path fill="#ec7c82" d="m127.688,111.225 0,49.424 42.779,24.714 0-49.426z"/>
<path fill="#c5d77a" d="m170.458,185.337 0-49.424 42.775-24.714 0,49.424z"/>
<path fill="#d19ec4" d="m213.123,407.196 42.777-24.708 42.776,24.708-42.776,24.715z"/>
<path fill="#faef88" d="m213.123,407.196 0,49.425 42.777,24.712 0-49.422z"/>
<path fill="#92d4f1" d="m255.891,481.307 0-49.422 42.779-24.708 0,49.42z"/>
<path fill="#c5d77a" d="m255.886,431.863 42.776-24.713 42.779,24.713-42.779,24.712z"/>
<path fill="#ec7c82" d="m255.886,431.863 0,49.424 42.776,24.713 0-49.425z"/>
<path fill="#d19ec4" d="m298.656,505.972 0-49.425 42.776-24.71 0,49.422z"/>
<path fill="#92d4f1" d="m298.684,407.18 42.773-24.709 42.78,24.709-42.78,24.714z"/>
<path fill="#f09255" d="m298.684,407.18 0,49.425 42.773,24.712 0-49.423z"/>
<path fill="#c5d77a" d="m341.451,481.296 0-49.427 42.778-24.711 0,49.424z"/>
<path fill="#faef88" d="m298.717,357.787 42.775-24.71 42.779,24.71-42.779,24.713z"/>
<path fill="#92d4f1" d="m298.717,357.787 0,49.427 42.775,24.71 0-49.424z"/>
<path fill="#faef88" d="m341.484,431.9 0-49.424 42.777-24.712 0,49.422z"/>
<path fill="#92d4f1" d="m170.512,86.768 42.777-24.71 42.775,24.71-42.775,24.712z"/>
<path fill="#f09255" d="m170.512,86.768 0,49.422 42.777,24.712 0-49.422z"/>
<path fill="#c5d77a" d="m213.28,160.876 0-49.424 42.78-24.71 0,49.426z"/>
<path fill="#d19ec4" d="m213.285,111.398 42.775-24.712 42.78,24.712-42.78,24.712z"/>
<path fill="#faef88" d="m213.285,111.398 0,49.424 42.775,24.712 0-49.424z"/>
<path fill="#92d4f1" d="m256.051,185.508 0-49.426 42.779-24.708 0,49.422z"/>
<path fill="#ec7c82" d="m256.034,136.146 42.777-24.713 42.777,24.713-42.777,24.71z"/>
<path fill="#92d4f1" d="m256.034,136.146 0,49.423 42.777,24.712 0-49.425z"/>
<path fill="#f09255" d="m298.805,210.255 0-49.422 42.775-24.712 0,49.424z"/>
<path fill="#d19ec4" d="m298.809,160.848 42.775-24.714 42.776,24.714-42.776,24.71z"/>
<path fill="#c5d77a" d="m298.809,160.848 0,49.424 42.775,24.71 0-49.424z"/>
<path fill="#ec7c82" d="m341.574,234.96 0-49.426 42.78-24.712 0,49.424z"/>
<path fill="#92d4f1" d="m298.787,308.402 42.775-24.713 42.779,24.713-42.779,24.712z"/>
<path fill="#ec7c82" d="m298.787,308.402 0,49.426 42.775,24.711 0-49.425z"/>
<path fill="#d19ec4" d="m341.553,382.515 0-49.425 42.778-24.709 0,49.42z"/>
<path fill="none" d="m0,0h512v512h-512z"/>
</svg>
