<svg width="512" xmlns="http://www.w3.org/2000/svg" height="512" viewBox="0 0 512 512" xmlns:xlink="http://www.w3.org/1999/xlink" enable-background="new 0 0 512 512">
<path fill="#faef88" d="m298.749,209.645 0-.377 .076,.044 0-.031 42.767-24.708 0-49.391 .008-.005-.008-.004 0-.024-.021,.012-42.746-24.696-.377,.218-42.374-24.478 0-.403 .006-.004-.006-.003 0-.021-.017,.011-42.753-24.701-42.778,24.714 0,49.425 42.686,24.655 0,.362-.011,.007 0,49.424 .009,.005 0,49.361-.017,.01 0,49.334-.035,.019 0,49.352-.002,.001 0,.029-42.756,24.698 0,49.429 42.776,24.707 0-.028 .053-.031 42.669,24.65 0,.081 42.776,24.712 0-.028 42.768-24.706 0-49.397 .011-.006-.011-.006 0-.017-.015,.009-42.732-24.68 0-.011 .004-.002 0-.06 .005-.003-.005-.003 0-49.29 .005-.003 0-.042 .004-.002-.004-.002 0-49.288 .034-.02 0-49.365 .018-.01 0-49.395 .004-.002-.004-.003 0-.023-.021,.012-.004-.002z"/>
<path fill="#92d4f1" d="m170.526,85.798 42.778-24.714 42.776,24.714-42.776,24.708z"/>
<path fill="#f09255" d="m170.526,85.798 0,49.425 42.778,24.708 0-49.425z"/>
<g fill="#c5d77a">
<path d="m213.295,159.909 0-49.427 42.779-24.708 0,49.418z"/>
<path d="m170.4,382.48 42.776-24.709 42.779,24.709-42.779,24.712z"/>
</g>
<path fill="#ec7c82" d="m170.4,382.48 0,49.429 42.776,24.707 0-49.424z"/>
<path fill="#faef88" d="m213.167,456.593 0-49.427 42.779-24.712 0,49.425z"/>
<path fill="#d19ec4" d="m213.154,407.093 42.775-24.716 42.775,24.716-42.775,24.71z"/>
<path fill="#92d4f1" d="m213.154,407.093 0,49.42 42.775,24.712 0-49.422z"/>
<path fill="#ec7c82" d="m255.92,481.201 0-49.424 42.775-24.713 0,49.425z"/>
<g fill="#faef88">
<path d="m213.156,357.753 42.778-24.708 42.774,24.708-42.774,24.714z"/>
<path d="m213.156,357.753 0,49.425 42.778,24.714 0-49.425z"/>
</g>
<path fill="#92d4f1" d="m255.925,431.863 0-49.422 42.774-24.71 0,49.425z"/>
<g fill="#f09255">
<path d="m213.158,308.4 42.776-24.712 42.774,24.712-42.774,24.71z"/>
<path d="m213.158,308.4 0,49.424 42.776,24.71 0-49.424z"/>
</g>
<path fill="#c5d77a" d="m255.925,382.508 0-49.422 42.779-24.712 0,49.423z"/>
<g fill="#d19ec4">
<path d="m213.193,259.047 42.775-24.71 42.775,24.71-42.775,24.715z"/>
<path d="m213.193,259.047 0,49.425 42.775,24.714 0-49.424z"/>
</g>
<g fill="#ec7c82">
<path d="m255.961,333.158 0-49.425 42.777-24.712 0,49.422z"/>
<path d="m213.21,209.671 42.775-24.71 42.775,24.71-42.775,24.712z"/>
</g>
<path fill="#c5d77a" d="m213.21,209.671 0,49.422 42.775,24.712 0-49.422z"/>
<g fill="#f09255">
<path d="m255.977,283.781 0-49.422 42.779-24.714 0,49.423z"/>
<path d="m213.201,160.247 42.779-24.713 42.776,24.713-42.776,24.714z"/>
</g>
<path fill="#92d4f1" d="m213.201,160.247 0,49.424 42.779,24.712 0-49.422z"/>
<g fill="#faef88">
<path d="m255.972,234.359 0-49.424 42.777-24.712 0,49.422z"/>
<path d="m213.212,110.866 42.777-24.71 42.776,24.71-42.776,24.714z"/>
</g>
<path fill="#ec7c82" d="m213.212,110.866 0,49.422 42.777,24.714 0-49.422z"/>
<path fill="#d19ec4" d="m255.98,184.976 0-49.422 42.776-24.712 0,49.424z"/>
<path fill="#c5d77a" d="m256.048,135.177 42.777-24.712 42.775,24.712-42.775,24.713z"/>
<path fill="#92d4f1" d="m256.048,135.177 0,49.422 42.777,24.713 0-49.422z"/>
<path fill="#f09255" d="m298.816,209.286 0-49.425 42.776-24.712 0,49.424z"/>
<path fill="#d19ec4" d="m255.898,431.863 42.776-24.707 42.779,24.707-42.779,24.71z"/>
<path fill="#faef88" d="m255.898,431.863 0,49.425 42.776,24.712 0-49.427z"/>
<path fill="#f09255" d="m298.667,505.976 0-49.424 42.775-24.712 0,49.426z"/>
<path fill="none" d="m0,0h512v512h-512z"/>
</svg>
