<svg width="512" xmlns="http://www.w3.org/2000/svg" height="512" viewBox="0 0 512 512" xmlns:xlink="http://www.w3.org/1999/xlink" enable-background="new 0 0 512 512">
<path fill="#faef88" d="m383.442,382.6 0-.022 0-49.311 .008-.005-.008-.005 0-.019-.016,.01-42.75-24.697-42.781,24.711 0,49.031-40.661-23.489-.396,.229 0-.184 .006-.004-.006-.004 0-.021-.018,.01-42.584-24.598 0-.252 .006-.003-.006-.004 0-.024-.021,.012-.122-.07 0-49.112 0-.039 .007-.004-.007-.004 0-.021 0-49.262 .034-.02 0-49.367 .02-.012 0-49.394 .011-.006-.011-.006 0-.018-.015,.009-.004-.002 .013-.007 0-49.374 .008-.005 0-49.397 .009-.005-.009-.005 0-.017-.014,.009-42.752-24.695-42.777,24.708 0,49.378-.009,.005 0,49.422 0,49.369-.013,.007 0,49.333-.034,.02 0,49.357 0,.068 0,49.354 .14,.081 0,49.159 42.598,24.607 0,.266 42.779,24.712 0-.028 .39-.225 0,.209 40.615,23.464 0,.262 42.774,24.71 0-.028 .02-.012 42.696,24.665 0-.029 42.767-24.708 0-49.195 .113-.065 0-49.343 0-.051 .008-.005z"/>
<path fill="#d19ec4" d="m128.69,333.977 42.777-24.715 42.775,24.715-42.775,24.71z"/>
<path fill="#c5d77a" d="m128.69,333.977 0,49.421 42.777,24.71 0-49.421z"/>
<path fill="#92d4f1" d="m171.459,408.087 0-49.425 42.777-24.713 0,49.424z"/>
<g fill="#faef88">
<path d="m128.55,284.736 42.772-24.71 42.778,24.71-42.778,24.71z"/>
<path d="m128.55,284.736 0,49.422 42.772,24.713 0-49.425z"/>
</g>
<path fill="#92d4f1" d="m171.316,358.847 0-49.425 42.777-24.711 0,49.424z"/>
<g fill="#f09255">
<path d="m128.55,235.379 42.777-24.71 42.773,24.71-42.773,24.713z"/>
<path d="m128.55,235.379 0,49.425 42.777,24.714 0-49.426z"/>
</g>
<path fill="#c5d77a" d="m171.316,309.492 0-49.422 42.777-24.713 0,49.422z"/>
<g fill="#d19ec4">
<path d="m128.584,186.026 42.777-24.71 42.773,24.71-42.773,24.715z"/>
<path d="m128.584,186.026 0,49.427 42.777,24.712 0-49.424z"/>
</g>
<g fill="#ec7c82">
<path d="m171.353,260.141 0-49.426 42.774-24.71 0,49.424z"/>
<path d="m128.597,136.65 42.782-24.708 42.779,24.708-42.779,24.716z"/>
</g>
<path fill="#c5d77a" d="m128.597,136.65 0,49.424 42.782,24.712 0-49.42z"/>
<g fill="#f09255">
<path d="m171.372,210.762 0-49.426 42.775-24.71 0,49.424z"/>
<path d="m128.597,87.228 42.778-24.71 42.774,24.71-42.774,24.714z"/>
</g>
<path fill="#92d4f1" d="m128.597,87.228 0,49.422 42.778,24.716 0-49.424z"/>
<path fill="#faef88" d="m171.368,161.336 0-49.422 42.773-24.71 0,49.422z"/>
<path fill="#c5d77a" d="m128.606,37.845 42.777-24.708 42.775,24.708-42.775,24.712z"/>
<path fill="#ec7c82" d="m128.606,37.845 0,49.426 42.777,24.71 0-49.424z"/>
<g fill="#d19ec4">
<path d="m171.375,111.957 0-49.424 42.774-24.71 0,49.424z"/>
<path d="m171.288,358.845 42.779-24.71 42.777,24.71-42.777,24.712z"/>
</g>
<path fill="#faef88" d="m171.288,358.845 0,49.426 42.779,24.712 0-49.426z"/>
<path fill="#f09255" d="m214.061,432.959 0-49.426 42.777-24.713 0,49.423z"/>
<path fill="#c5d77a" d="m214.457,383.516 42.777-24.712 42.778,24.712-42.778,24.71z"/>
<path fill="#ec7c82" d="m214.457,383.516 0,49.423 42.777,24.713 0-49.426z"/>
<path fill="#faef88" d="m257.225,457.626 0-49.422 42.779-24.714 0,49.424z"/>
<path fill="#f09255" d="m255.072,407.24 42.774-24.711 42.775,24.711-42.775,24.713z"/>
<path fill="#92d4f1" d="m255.072,407.24 0,49.425 42.774,24.71 0-49.422z"/>
<path fill="#f09255" d="m297.838,481.352 0-49.425 42.781-24.712 0,49.424z"/>
<path fill="#ec7c82" d="m297.785,431.864 42.777-24.715 42.775,24.715-42.775,24.71z"/>
<path fill="#d19ec4" d="m297.785,431.864 0,49.424 42.777,24.712 0-49.426z"/>
<path fill="#faef88" d="m340.557,505.975 0-49.425 42.772-24.71 0,49.423z"/>
<path fill="#d19ec4" d="m297.895,382.604 42.779-24.713 42.776,24.713-42.776,24.71z"/>
<path fill="#c5d77a" d="m297.895,382.604 0,49.422 42.779,24.712 0-49.424z"/>
<path fill="#ec7c82" d="m340.664,456.717 0-49.424 42.778-24.715 0,49.425z"/>
<path fill="#f09255" d="m297.895,333.262 42.781-24.711 42.774,24.711-42.774,24.713z"/>
<path fill="#92d4f1" d="m297.895,333.262 0,49.425 42.781,24.709 0-49.421z"/>
<path fill="#faef88" d="m340.664,407.373 0-49.424 42.778-24.711 0,49.422z"/>
<path fill="none" d="m0,0h512v512h-512z"/>
</svg>
