<svg width="512" xmlns="http://www.w3.org/2000/svg" height="512" viewBox="0 0 512 512" xmlns:xlink="http://www.w3.org/1999/xlink" enable-background="new 0 0 512 512">
<path fill="#faef88" d="m384.275,234.439 0-.019-.016,.01-.003-.002 .014-.008 0-49.373 .009-.006 0-49.397 .006-.003-.006-.004 0-.022-.019,.011-42.75-24.697-42.778,24.712 0,49.377-.007,.003 0,49.423 .004,.002 0,.042-.002,.002-42.752-24.698-42.677,24.655 0-.265 .018,.011 0-.035 42.768-24.705 0-49.394 .008-.005-.008-.004 0-.02-.016,.01-42.752-24.696-.003,.002 0-48.943 .009-.005 0-49.394 .008-.004-.008-.004 0-.022-.019,.011-42.752-24.697-42.776,24.712 0,49.376-.008,.005 0,49.424 .005,.003 0,49.363-.019,.011 0,49.332-.035,.021 0,49.355 0,.069 0,49.265-.003,.002 0,49.421 42.777,24.71 0-.024 42.769-24.712 0-49.331 .004-.002 0-.061 .001-.001-.001-.001 0-49.26 42.695,24.667 0,49.007 42.716,24.672 0,.219 0,.07 0,49.265-.006,.003 0,49.422 42.779,24.71 0-.026 42.768-24.712 0-49.332 .002-.001 0-.058 .006-.003-.006-.003 0-49.29 .004-.002 0-.04 .006-.003-.006-.003 0-49.286 .035-.02 0-49.365 .017-.009 0-49.399 .008-.004z"/>
<g fill="#d19ec4">
<path d="m127.715,333.226 42.777-24.717 42.774,24.717-42.774,24.707z"/>
<path d="m127.715,333.226 0,49.421 42.777,24.71 0-49.424z"/>
</g>
<path fill="#92d4f1" d="m170.484,407.338 0-49.427 42.777-24.712 0,49.422z"/>
<path fill="#faef88" d="m127.718,283.89 42.777-24.712 42.778,24.712-42.778,24.712z"/>
<path fill="#c5d77a" d="m127.718,283.89 0,49.422 42.777,24.714 0-49.424z"/>
<path fill="#faef88" d="m170.487,357.998 0-49.425 42.778-24.707 0,49.422z"/>
<path fill="#f09255" d="m127.718,234.535 42.777-24.712 42.778,24.712-42.778,24.71z"/>
<path fill="#ec7c82" d="m127.718,234.535 0,49.424 42.777,24.71 0-49.424z"/>
<path fill="#92d4f1" d="m170.487,308.646 0-49.425 42.778-24.712 0,49.422z"/>
<path fill="#d19ec4" d="m127.753,185.182 42.778-24.712 42.777,24.712-42.777,24.712z"/>
<path fill="#faef88" d="m127.753,185.182 0,49.424 42.778,24.709 0-49.421z"/>
<path fill="#d19ec4" d="m170.523,259.292 0-49.424 42.775-24.71 0,49.422z"/>
<path fill="#ec7c82" d="m127.772,135.805 42.777-24.714 42.776,24.714-42.776,24.71z"/>
<path fill="#c5d77a" d="m127.772,135.805 0,49.424 42.777,24.71 0-49.424z"/>
<g fill="#f09255">
<path d="m170.542,209.916 0-49.425 42.776-24.716 0,49.426z"/>
<path d="m127.767,86.381 42.776-24.714 42.779,24.714-42.779,24.71z"/>
</g>
<path fill="#92d4f1" d="m127.767,86.381 0,49.424 42.776,24.71 0-49.424z"/>
<path fill="#faef88" d="m170.534,160.491 0-49.422 42.779-24.714 0,49.42z"/>
<path fill="#92d4f1" d="M127.775,37 170.551,12.288 213.33,37 170.551,61.71z"/>
<path fill="#f09255" d="m127.775,37 0,49.422 42.776,24.71 0-49.422z"/>
<path fill="#c5d77a" d="m170.545,111.11 0-49.424 42.777-24.712 0,49.424z"/>
<path fill="#ec7c82" d="m170.542,160.054 42.774-24.71 42.776,24.71-42.776,24.712z"/>
<path fill="#f09255" d="m170.542,160.054 0,49.422 42.774,24.717 0-49.427z"/>
<path fill="#92d4f1" d="m213.308,234.163 0-49.423 42.776-24.71 0,49.423z"/>
<path fill="#faef88" d="m213.198,234.504 42.777-24.712 42.775,24.712-42.775,24.712z"/>
<path fill="#ec7c82" d="m213.198,234.504 0,49.423 42.777,24.714 0-49.425z"/>
<path fill="#c5d77a" d="m255.968,308.614 0-49.422 42.774-24.712 0,49.425z"/>
<path fill="#d19ec4" d="m255.96,308.216 42.778-24.713 42.776,24.713-42.776,24.709z"/>
<path fill="#faef88" d="m255.96,308.216 0,49.423 42.778,24.708 0-49.422z"/>
<path fill="#92d4f1" d="m298.729,382.325 0-49.425 42.775-24.713 0,49.423z"/>
<path fill="#d19ec4" d="m298.67,431.868 42.779-24.712 42.776,24.712-42.776,24.708z"/>
<path fill="#ec7c82" d="m298.67,431.868 0,49.422 42.779,24.71 0-49.424z"/>
<g fill="#faef88">
<path d="m341.441,505.979 0-49.425 42.776-24.716 0,49.424z"/>
<path d="m298.676,382.53 42.775-24.712 42.778,24.712-42.778,24.712z"/>
</g>
<path fill="#f09255" d="m298.676,382.53 0,49.424 42.775,24.713 0-49.425z"/>
<path fill="#92d4f1" d="m341.443,456.641 0-49.422 42.776-24.714 0,49.424z"/>
<path fill="#f09255" d="m298.676,333.178 42.775-24.714 42.778,24.714-42.778,24.71z"/>
<path fill="#c5d77a" d="m298.676,333.178 0,49.422 42.775,24.712 0-49.424z"/>
<g fill="#d19ec4">
<path d="m341.443,407.288 0-49.424 42.78-24.713 0,49.422z"/>
<path d="m298.711,283.823 42.775-24.715 42.78,24.715-42.78,24.711z"/>
</g>
<path fill="#92d4f1" d="m298.711,283.823 0,49.426 42.775,24.71 0-49.425z"/>
<g fill="#ec7c82">
<path d="m341.48,357.933 0-49.424 42.778-24.71 0,49.422z"/>
<path d="m298.729,234.444 42.775-24.713 42.779,24.713-42.779,24.714z"/>
</g>
<path fill="#f09255" d="m298.729,234.444 0,49.424 42.775,24.715 0-49.425z"/>
<path fill="#faef88" d="m341.5,308.556 0-49.424 42.775-24.712 0,49.427z"/>
<path fill="#f09255" d="m298.725,185.021 42.775-24.709 42.779,24.709-42.779,24.71z"/>
<path fill="#ec7c82" d="m298.725,185.021 0,49.423 42.775,24.714 0-49.427z"/>
<g fill="#c5d77a">
<path d="m341.494,259.135 0-49.425 42.776-24.714 0,49.424z"/>
<path d="m298.732,135.641 42.778-24.712 42.775,24.712-42.775,24.714z"/>
</g>
<path fill="#faef88" d="m298.732,135.641 0,49.422 42.778,24.716 0-49.424z"/>
<path fill="#f09255" d="m341.5,209.749 0-49.422 42.779-24.712 0,49.426z"/>
<path fill="none" d="m0,0h512v512h-512z"/>
</svg>
