<svg width="512" xmlns="http://www.w3.org/2000/svg" height="512" viewBox="0 0 512 512" xmlns:xlink="http://www.w3.org/1999/xlink" enable-background="new 0 0 512 512">
<g fill="#faef88">
<path d="m384.107,210.364l.004-.002-.004-.002v-.023l-.021,.012-42.698-24.666 .029-.017v-49.394l.009-.005-.009-.005v-.021l-.018,.01-42.708-24.674v-.001h-.001l-.042-.024-.013,.007-42.662-24.642v-.093l.008-.004-.008-.004v-.024l-.021,.012-42.75-24.696-42.776,24.712v.068l-42.535,24.573v49.236l-.004,.002v49.424l.015,.009v49.185l-.009,.005v49.423l.04,.023v49.295l42.533,24.573v49.313l42.711,24.672v.004l42.476,24.535v.129l42.776,24.711v-.028l42.516-24.562 .24,.139v-.027l42.767-24.708v-49.391l.014-.008-.014-.008v-.019l-.016,.009-.07-.04 .077-.045v-49.339l.005-.003v-.054l.004-.002-.004-.002v-48.896l.112-.064v-49.167l.048-.027v-49.394zm-85.547,49.166l-.05,.028v48.95l-.108,.062v49.34l-.006,.003v49.093l-42.384-24.487v-.019l-.016,.009-.04-.022-.001,.001-42.475-24.535v-49.309l.008-.005-.008-.005v-.018l-.016,.009-.023-.013v-49.161l.01-.006v-49.394l.008-.005-.008-.005v-.021l-.018,.011-.001-.001v-48.845l42.49,24.547v-.012l42.649,24.633-.011,.006v49.171z"/>
<path d="m170.468,382.526 42.777-24.71 42.776,24.71-42.776,24.712z"/>
</g>
<path fill="#ec7c82" d="m170.468,382.526 0,49.424 42.777,24.71 0-49.422z"/>
<path fill="#92d4f1" d="m213.234,456.637 0-49.422 42.779-24.714 0,49.424z"/>
<path fill="#d19ec4" d="m213.179,407.202 42.778-24.715 42.777,24.715-42.777,24.714z"/>
<g fill="#92d4f1">
<path d="m213.179,407.202 0,49.424 42.778,24.71 0-49.42z"/>
<path d="m255.948,481.31 0-49.42 42.778-24.714 0,49.424z"/>
</g>
<path fill="#c5d77a" d="m255.654,431.866 42.775-24.715 42.775,24.715-42.775,24.712z"/>
<path fill="#f09255" d="m255.654,431.866 0,49.424 42.775,24.71 0-49.422z"/>
<path fill="#faef88" d="m298.42,505.977 0-49.424 42.777-24.715 0,49.425z"/>
<path fill="#92d4f1" d="m127.935,308.64 42.776-24.711 42.777,24.711-42.777,24.713z"/>
<path fill="#f09255" d="m127.935,308.64 0,49.423 42.776,24.714 0-49.424z"/>
<path fill="#c5d77a" d="m170.704,382.754 0-49.427 42.776-24.71 0,49.425z"/>
<path fill="#faef88" d="m127.895,259.322 42.78-24.714 42.773,24.714-42.773,24.71z"/>
<path fill="#d19ec4" d="m127.895,259.322 0,49.423 42.78,24.71 0-49.423z"/>
<path fill="#92d4f1" d="m170.665,333.431 0-49.424 42.777-24.714 0,49.427z"/>
<path fill="#faef88" d="m298.407,407.414 42.778-24.71 42.78,24.71-42.78,24.71z"/>
<path fill="#ec7c82" d="m298.407,407.414 0,49.422 42.778,24.712 0-49.424z"/>
<path fill="#f09255" d="m341.178,481.524 0-49.424 42.773-24.712 0,49.424z"/>
<path fill="#d19ec4" d="m127.904,210.048 42.777-24.712 42.779,24.712-42.779,24.71z"/>
<path fill="#faef88" d="m127.904,210.048 0,49.425 42.777,24.71 0-49.425z"/>
<g fill="#ec7c82">
<path d="m170.675,284.156 0-49.422 42.777-24.712 0,49.424z"/>
<path d="m127.889,160.7 42.776-24.715 42.778,24.715-42.778,24.707z"/>
</g>
<path fill="#92d4f1" d="m127.889,160.7 0,49.424 42.776,24.708 0-49.425z"/>
<path fill="#d19ec4" d="m170.658,234.81 0-49.424 42.774-24.715 0,49.423z"/>
<path fill="#faef88" d="m298.396,357.914 42.777-24.712 42.778,24.712-42.778,24.712z"/>
<path fill="#d19ec4" d="m298.396,357.914 0,49.427 42.777,24.709 0-49.424z"/>
<path fill="#92d4f1" d="m341.165,432.026 0-49.423 42.777-24.715 0,49.424z"/>
<path fill="#d19ec4" d="m298.402,308.571 42.78-24.711 42.774,24.711-42.774,24.713z"/>
<path fill="#faef88" d="m298.402,308.571 0,49.423 42.78,24.712 0-49.422z"/>
<g fill="#ec7c82">
<path d="m341.171,382.681 0-49.423 42.776-24.714 0,49.426z"/>
<path d="m298.511,259.559 42.777-24.717 42.78,24.717-42.78,24.708z"/>
</g>
<path fill="#f09255" d="m298.511,259.559 0,49.42 42.777,24.709 0-49.421z"/>
<path fill="#c5d77a" d="m341.281,333.665 0-49.422 42.779-24.715 0,49.424z"/>
<path fill="#d19ec4" d="m127.893,111.461 42.776-24.711 42.777,24.711-42.777,24.71z"/>
<path fill="#c5d77a" d="m127.893,111.461 0,49.423 42.776,24.714 0-49.427z"/>
<path fill="#faef88" d="m170.664,185.57 0-49.424 42.774-24.71 0,49.426z"/>
<path fill="#92d4f1" d="m170.428,86.821 42.776-24.713 42.778,24.713-42.778,24.712z"/>
<path fill="#f09255" d="m170.428,86.821 0,49.424 42.776,24.71 0-49.422z"/>
<path fill="#c5d77a" d="m213.198,160.931 0-49.424 42.777-24.715 0,49.427z"/>
<path fill="#d19ec4" d="m213.146,111.596 42.776-24.708 42.777,24.708-42.777,24.714z"/>
<path fill="#faef88" d="m213.146,111.596 0,49.426 42.776,24.712 0-49.424z"/>
<g fill="#92d4f1">
<path d="m255.914,185.712 0-49.428 42.778-24.708 0,49.422z"/>
<path d="m298.561,210.362 42.772-24.712 42.778,24.712-42.778,24.71z"/>
</g>
<path fill="#d19ec4" d="m298.561,210.362 0,49.424 42.772,24.71 0-49.424z"/>
<path fill="#faef88" d="m341.329,284.468 0-49.422 42.778-24.71 0,49.422z"/>
<path fill="#c5d77a" d="m255.87,136.267 42.779-24.715 42.778,24.715-42.778,24.71z"/>
<path fill="#ec7c82" d="m255.87,136.267 0,49.426 42.779,24.708 0-49.424z"/>
<path fill="#f09255" d="m298.637,210.377 0-49.422 42.781-24.714 0,49.424z"/>
<path fill="none" d="m0,0h512v512h-512z"/>
</svg>
