<svg width="512" xmlns="http://www.w3.org/2000/svg" height="512" viewBox="0 0 512 512" xmlns:xlink="http://www.w3.org/1999/xlink" enable-background="new 0 0 512 512">
<path fill="#faef88" d="m384.282,283.907l.008-.005-.008-.005v-.021l-.019,.011-.015-.008v-49.383l.008-.004-.008-.004v-.02l-.017,.01-42.688-24.66v-49.338l.012-.006-.012-.006v-.018l-.015,.009-42.751-24.697-.045,.026v-.018l.008-.005-.008-.005v-.023l-.02,.011-42.636-24.63v-.002l-.002,.001-.111-.064-.016,.009-42.633-24.629v-.003l-.003,.002-.003-.002-.019,.011-42.739-24.695-42.775,24.714v49.372l-.008,.005v49.424 49.372l-.015,.009v49.33l-.033,.019v49.356l-.004,.003v49.33l-.004,.003v49.422l.042,.024v49.157l42.775,24.714v-.033l42.769-24.705v-49.392l.008-.005-.008-.005v-.023l-.021,.012-.019-.011v-49.093l.002-.001v-.058l.004-.003-.004-.003v-49.289-.036l.009-.005-.009-.005v-.023-.068l.018,.01v-.01l42.768,24.706v-.018l42.753,24.697v-.03l42.625-24.622 .088,.051v-.029l42.771-24.706v-49.396zm-85.575-.149l-42.662-24.646v-.012l-.021,.012-42.71-24.675v-49.169l.005-.003 42.646,24.636v-.031l.037-.021v.048l42.705,24.673v49.188z"/>
<path fill="#d19ec4" d="m127.751,431.865 42.777-24.714 42.777,24.714-42.777,24.71z"/>
<path fill="#c5d77a" d="m127.751,431.865 0,49.422 42.777,24.713 0-49.425z"/>
<path fill="#f09255" d="m170.52,505.972 0-49.425 42.777-24.71 0,49.425z"/>
<g fill="#d19ec4">
<path d="m127.71,382.684 42.777-24.712 42.777,24.712-42.777,24.71z"/>
<path d="m127.71,382.684 0,49.421 42.777,24.71 0-49.421z"/>
</g>
<g fill="#faef88">
<path d="m170.481,456.794 0-49.424 42.777-24.713 0,49.425z"/>
<path d="m127.714,333.351 42.778-24.717 42.777,24.717-42.777,24.707z"/>
</g>
<path fill="#f09255" d="m127.714,333.351 0,49.42 42.778,24.711 0-49.424z"/>
<path fill="#92d4f1" d="m170.483,407.458 0-49.426 42.777-24.71 0,49.422z"/>
<path fill="#f09255" d="m127.719,283.991 42.777-24.708 42.773,24.708-42.773,24.712z"/>
<path fill="#faef88" d="m127.719,283.991 0,49.424 42.777,24.713 0-49.425z"/>
<path fill="#ec7c82" d="m170.483,358.102 0-49.423 42.777-24.712 0,49.425z"/>
<path fill="#d19ec4" d="m127.751,234.643 42.777-24.715 42.777,24.715-42.777,24.71z"/>
<path fill="#c5d77a" d="m127.751,234.643 0,49.421 42.777,24.712 0-49.423z"/>
<path fill="#f09255" d="m170.52,308.749 0-49.425 42.777-24.71 0,49.425z"/>
<path fill="#ec7c82" d="m127.767,185.262 42.781-24.715 42.775,24.715-42.775,24.712z"/>
<path fill="#92d4f1" d="m127.767,185.262 0,49.424 42.781,24.71 0-49.422z"/>
<path fill="#faef88" d="m170.537,259.372 0-49.42 42.777-24.717 0,49.425z"/>
<path fill="#f09255" d="m127.767,135.837 42.776-24.71 42.773,24.71-42.773,24.712z"/>
<path fill="#ec7c82" d="m127.767,135.837 0,49.425 42.776,24.712 0-49.425z"/>
<g fill="#c5d77a">
<path d="m170.533,209.952 0-49.427 42.777-24.71 0,49.425z"/>
<path d="m127.775,86.46 42.775-24.714 42.775,24.714-42.775,24.708z"/>
</g>
<path fill="#faef88" d="m127.775,86.46 0,49.423 42.775,24.712 0-49.427z"/>
<path fill="#d19ec4" d="m170.543,160.569 0-49.424 42.773-24.715 0,49.427z"/>
<path fill="#ec7c82" d="m170.53,111.143 42.78-24.713 42.776,24.713-42.776,24.711z"/>
<path fill="#d19ec4" d="m170.53,111.143 0,49.421 42.78,24.715 0-49.425z"/>
<g fill="#92d4f1">
<path d="m213.301,185.25 0-49.421 42.778-24.712 0,49.424z"/>
<path d="m213.188,135.766 42.777-24.712 42.777,24.712-42.777,24.712z"/>
</g>
<path fill="#f09255" d="m213.188,135.766 0,49.422 42.777,24.712 0-49.422z"/>
<path fill="#c5d77a" d="m255.957,209.874 0-49.422 42.777-24.714 0,49.424z"/>
<path fill="#d19ec4" d="m256.002,160.474 42.777-24.712 42.778,24.712-42.778,24.712z"/>
<path fill="#faef88" d="m256.002,160.474 0,49.422 42.777,24.714 0-49.424z"/>
<g fill="#92d4f1">
<path d="m298.771,234.582 0-49.424 42.774-24.708 0,49.42z"/>
<path d="m170.498,259.129 42.779-24.714 42.777,24.714-42.777,24.709z"/>
</g>
<path fill="#f09255" d="m170.498,259.129 0,49.423 42.779,24.712 0-49.426z"/>
<path fill="#c5d77a" d="m213.269,333.237 0-49.424 42.776-24.713 0,49.425z"/>
<path fill="#d19ec4" d="m213.269,283.824 42.776-24.712 42.777,24.712-42.777,24.71z"/>
<path fill="#faef88" d="m213.269,283.824 0,49.425 42.776,24.711 0-49.426z"/>
<path fill="#92d4f1" d="m256.037,357.935 0-49.424 42.781-24.715 0,49.424z"/>
<path fill="#c5d77a" d="m256.022,308.504 42.777-24.71 42.777,24.71-42.777,24.712z"/>
<path fill="#92d4f1" d="m256.022,308.504 0,49.425 42.777,24.711 0-49.424z"/>
<path fill="#f09255" d="m298.787,382.616 0-49.422 42.779-24.715 0,49.425z"/>
<g fill="#faef88">
<path d="m298.736,283.902 42.776-24.713 42.778,24.713-42.778,24.714z"/>
<path d="m298.736,283.902 0,49.422 42.776,24.714 0-49.422z"/>
</g>
<path fill="#d19ec4" d="m341.504,358.013 0-49.424 42.778-24.713 0,49.427z"/>
<path fill="#ec7c82" d="m298.707,234.491 42.775-24.71 42.775,24.71-42.775,24.712z"/>
<path fill="#92d4f1" d="m298.707,234.491 0,49.424 42.775,24.713 0-49.425z"/>
<path fill="#f09255" d="m341.473,308.604 0-49.422 42.776-24.715 0,49.425z"/>
<path fill="none" d="m0,0h512v512h-512z"/>
</svg>
