<svg width="512" xmlns="http://www.w3.org/2000/svg" height="512" viewBox="0 0 512 512" xmlns:xlink="http://www.w3.org/1999/xlink" enable-background="new 0 0 512 512">
<path fill="#faef88" d="m341.422,308.917l.092,.053v-.028l42.769-24.706v-49.398l.008-.004-.008-.004v-.017l-.015,.008-.017-.009v-49.383l.006-.003-.006-.003v-.02l-.018,.01-42.687-24.66v-49.345l.006-.003-.006-.003v-.021l-.018,.011-42.75-24.697-.045,.026v-.018l.01-.006-.01-.006v-.016l-.014,.008-42.753-24.696-.018,.01-42.631-24.627 0,0-.008-.005-.015,.009-42.747-24.695-42.774,24.711v49.375l-.011,.006v49.424l.006,.003v49.365l-.018,.01v49.33l-.037,.021v49.357 .067 49.265l-.004,.003v49.42l42.777,24.713v-.03l42.771-24.706v-49.337l.002-.001v-.056l.004-.003-.004-.003v-.134l42.502,24.554v49.302l42.576,24.599v49.354l42.78,24.712v-.029l42.769-24.707v-49.396l.008-.005-.008-.005v-.019l-.017,.01-42.559-24.587v-49.349l.006-.003-.006-.003v-.017l-.015,.008-42.335-24.452 42.462-24.529zm-42.717-74.228l-42.66-24.644v-.011l-.017,.01-42.714-24.675v-49.171l.006-.003-.006-.003 42.653,24.64v-.029l.033-.02v.046l42.705,24.669v49.191z"/>
<path fill="#ec7c82" d="m213.033,283.924 42.777-24.71 42.776,24.71-42.776,24.712z"/>
<path fill="#f09255" d="m213.033,283.924 0,49.425 42.777,24.712 0-49.425z"/>
<path fill="#d19ec4" d="m255.801,358.034 0-49.424 42.777-24.71 0,49.422z"/>
<path fill="#f09255" d="m298.338,431.863 42.779-24.712 42.777,24.712-42.777,24.712z"/>
<path fill="#faef88" d="m298.338,431.863 0,49.425 42.779,24.712 0-49.425z"/>
<path fill="#92d4f1" d="m341.107,505.976 0-49.426 42.779-24.71 0,49.424z"/>
<path fill="#c5d77a" d="m255.762,357.911 42.777-24.708 42.777,24.708-42.777,24.717z"/>
<path fill="#ec7c82" d="m255.762,357.911 0,49.424 42.777,24.715 0-49.422z"/>
<g fill="#d19ec4">
<path d="m298.531,432.023 0-49.421 42.78-24.71 0,49.421z"/>
<path d="m127.71,333.616 42.777-24.714 42.777,24.714-42.777,24.711z"/>
</g>
<path fill="#ec7c82" d="m127.71,333.616 0,49.42 42.777,24.713 0-49.422z"/>
<g fill="#faef88">
<path d="m170.48,407.723 0-49.422 42.778-24.71 0,49.422z"/>
<path d="m127.714,284.281 42.778-24.714 42.777,24.714-42.777,24.71z"/>
</g>
<path fill="#d19ec4" d="m127.714,284.281 0,49.425 42.778,24.709 0-49.424z"/>
<path fill="#92d4f1" d="m170.483,358.392 0-49.424 42.777-24.715 0,49.422z"/>
<path fill="#f09255" d="m127.714,234.924 42.778-24.71 42.777,24.71-42.777,24.712z"/>
<path fill="#faef88" d="m127.714,234.924 0,49.425 42.778,24.712 0-49.425z"/>
<path fill="#ec7c82" d="m170.485,309.034 0-49.424 42.775-24.71 0,49.425z"/>
<path fill="#d19ec4" d="m127.751,185.573 42.777-24.712 42.777,24.712-42.777,24.71z"/>
<path fill="#c5d77a" d="m127.751,185.573 0,49.423 42.777,24.712 0-49.425z"/>
<path fill="#f09255" d="m170.522,259.684 0-49.424 42.777-24.715 0,49.427z"/>
<g fill="#ec7c82">
<path d="m127.769,136.195 42.776-24.713 42.775,24.713-42.775,24.71z"/>
<path d="m127.769,136.195 0,49.424 42.776,24.714 0-49.428z"/>
</g>
<path fill="#faef88" d="m170.535,210.305 0-49.424 42.779-24.714 0,49.426z"/>
<path fill="#f09255" d="m127.762,86.771 42.777-24.713 42.777,24.713-42.777,24.711z"/>
<path fill="#92d4f1" d="m127.762,86.771 0,49.424 42.777,24.712 0-49.425z"/>
<path fill="#c5d77a" d="m170.535,160.883 0-49.425 42.775-24.713 0,49.426z"/>
<path fill="#f09255" d="m127.773,37.39 42.775-24.713 42.777,24.713-42.777,24.712z"/>
<path fill="#faef88" d="m127.773,37.39 0,49.423 42.775,24.713 0-49.424z"/>
<path fill="#d19ec4" d="m170.539,111.502 0-49.424 42.779-24.71 0,49.422z"/>
<path fill="#92d4f1" d="m170.533,62.073 42.777-24.71 42.774,24.71-42.774,24.715z"/>
<path fill="#d19ec4" d="m170.533,62.073 0,49.425 42.777,24.714 0-49.424z"/>
<path fill="#92d4f1" d="m213.301,136.186 0-49.426 42.777-24.71 0,49.424z"/>
<path fill="#ec7c82" d="m213.188,86.695 42.779-24.71 42.777,24.71-42.777,24.714z"/>
<path fill="#f09255" d="m213.188,86.695 0,49.424 42.779,24.712 0-49.422z"/>
<path fill="#c5d77a" d="m255.958,160.807 0-49.424 42.776-24.71 0,49.42z"/>
<path fill="#d19ec4" d="m256,111.402 42.779-24.71 42.774,24.71-42.774,24.713z"/>
<path fill="#faef88" d="m256,111.402 0,49.427 42.779,24.712 0-49.426z"/>
<path fill="#c5d77a" d="m298.766,185.515 0-49.424 42.781-24.713 0,49.425z"/>
<path fill="#92d4f1" d="m170.5,210.058 42.777-24.71 42.775,24.71-42.775,24.71z"/>
<path fill="#f09255" d="m170.5,210.058 0,49.424 42.777,24.71 0-49.424z"/>
<path fill="#c5d77a" d="m213.269,284.171 0-49.424 42.776-24.712 0,49.421z"/>
<path fill="#d19ec4" d="m213.271,234.757 42.774-24.712 42.777,24.712-42.777,24.713z"/>
<path fill="#faef88" d="m213.271,234.757 0,49.423 42.774,24.71 0-49.42z"/>
<path fill="#92d4f1" d="m256.039,308.868 0-49.425 42.775-24.714 0,49.426z"/>
<path fill="#c5d77a" d="m256.024,259.437 42.775-24.712 42.779,24.712-42.779,24.712z"/>
<path fill="#92d4f1" d="m256.024,259.437 0,49.424 42.775,24.71 0-49.422z"/>
<path fill="#f09255" d="m298.791,333.546 0-49.423 42.773-24.71 0,49.422z"/>
<g fill="#faef88">
<path d="m298.738,234.833 42.776-24.71 42.776,24.71-42.776,24.715z"/>
<path d="m298.738,234.833 0,49.424 42.776,24.713 0-49.422z"/>
</g>
<path fill="#d19ec4" d="m341.51,308.943 0-49.422 42.772-24.709 0,49.423z"/>
<path fill="#ec7c82" d="m298.705,185.424 42.775-24.712 42.777,24.712-42.777,24.712z"/>
<path fill="#92d4f1" d="m298.705,185.424 0,49.424 42.775,24.71 0-49.422z"/>
<path fill="#f09255" d="m341.475,259.532 0-49.422 42.776-24.71 0,49.422z"/>
<path fill="none" d="m0,0h512v512h-512z"/>
</svg>
