<svg width="512" xmlns="http://www.w3.org/2000/svg" height="512" viewBox="0 0 512 512" xmlns:xlink="http://www.w3.org/1999/xlink" enable-background="new 0 0 512 512">
<path fill="#faef88" d="m342.031,284.111v-.033l42.768-24.703v-49.398l.008-.005-.008-.005v-.017l-.016,.008-42.752-24.695-.025,.014v-49.356l.018-.01-.018-.01v-.003l-.002,.001-42.738-24.687v-.007l-.006,.003-.014-.008-.01,.006-42.738-24.686-.004,.002v-.015l-.017,.01-42.751-24.696-42.776,24.712v.027l-42.671,24.65v49.178l-.037,.021v49.424l42.115,24.329-.33,.19v49.422l42.692,24.664-.004,.002-42.749-24.696-42.775,24.714v49.424l42.695,24.663v49.422l42.712,24.677v.053l42.779,24.712v-.03l.071-.04 42.691,24.661v-.028l42.711-24.674 .006,.003v-.006l.051-.03v-.022l42.719-24.679v-49.291l.088-.05v-49.388l.01-.006-.01-.006v-.024l-.021,.012-42.697-24.668 .01-.006v-49.397l.008-.004-.008-.004v-.02l-.016,.01-42.674-24.649v-.015l.006-.004-.006-.004v-.022l-.02,.011-42.721-24.681v-.001l.007-.004-.007-.004v-.022l-.019,.011-42.113-24.328 .347-.2v-49.113l42.709,24.667v-.016l42.749,24.698v-.02l.008-.004v49.374l42.775,24.715zm-129.293,24.339l.03,.017v.012l42.693,24.659v.024l42.707,24.674v49.28l-.088,.051v.021l-.037,.021-42.608-24.615v-.046l.004-.002-.004-.002v-.022l-.019,.011-42.699-24.666 .021-.013v-49.39l.008-.005-.008-.005v-.004z"/>
<path fill="#92d4f1" d="m169.888,382.546 42.777-24.71 42.774,24.71-42.774,24.712z"/>
<path fill="#faef88" d="m169.888,382.546 0,49.422 42.777,24.714 0-49.424z"/>
<path fill="#92d4f1" d="m212.656,456.656 0-49.424 42.779-24.711 0,49.425z"/>
<path fill="#d19ec4" d="m212.6,407.273 42.778-24.712 42.776,24.712-42.776,24.714z"/>
<path fill="#f09255" d="m212.6,407.273 0,49.424 42.778,24.712 0-49.422z"/>
<path fill="#92d4f1" d="m255.371,481.384 0-49.423 42.774-24.709 0,49.419z"/>
<path fill="#c5d77a" d="m255.362,431.861 42.777-24.707 42.775,24.707-42.775,24.717z"/>
<path fill="#ec7c82" d="m255.362,431.861 0,49.427 42.777,24.712 0-49.422z"/>
<path fill="#faef88" d="m298.133,505.975 0-49.423 42.773-24.71 0,49.423z"/>
<path fill="#92d4f1" d="m127.193,308.459 42.775-24.714 42.779,24.714-42.779,24.708z"/>
<path fill="#f09255" d="m127.193,308.459 0,49.424 42.775,24.709 0-49.425z"/>
<path fill="#c5d77a" d="m169.961,382.567 0-49.421 42.777-24.717 0,49.425z"/>
<path fill="#faef88" d="m298.08,407.167 42.775-24.714 42.78,24.714-42.78,24.71z"/>
<path fill="#92d4f1" d="m298.08,407.167 0,49.422 42.775,24.712 0-49.424z"/>
<g fill="#ec7c82">
<path d="m340.846,481.277 0-49.426 42.779-24.71 0,49.422z"/>
<path d="m170.028,234.353 42.775-24.712 42.778,24.712-42.778,24.709z"/>
</g>
<path fill="#faef88" d="m170.028,234.353 0,49.422 42.775,24.712 0-49.425z"/>
<g fill="#ec7c82">
<path d="m212.794,308.463 0-49.424 42.78-24.712 0,49.425z"/>
<path d="m128.243,160.409 42.778-24.714 42.778,24.714-42.778,24.71z"/>
</g>
<path fill="#92d4f1" d="m128.243,160.409 0,49.424 42.778,24.713 0-49.427z"/>
<g fill="#d19ec4">
<path d="m171.011,234.522 0-49.422 42.777-24.717 0,49.427z"/>
<path d="m128.279,111.21 42.775-24.71 42.779,24.71-42.779,24.712z"/>
</g>
<path fill="#c5d77a" d="m128.279,111.21 0,49.424 42.775,24.713 0-49.425z"/>
<path fill="#faef88" d="m171.045,185.323 0-49.425 42.78-24.711 0,49.424z"/>
<path fill="#92d4f1" d="m170.95,86.533 42.775-24.712 42.779,24.712-42.779,24.712z"/>
<path fill="#f09255" d="m170.95,86.533 0,49.424 42.775,24.71 0-49.422z"/>
<path fill="#c5d77a" d="m213.716,160.641 0-49.422 42.778-24.712 0,49.422z"/>
<path fill="#d19ec4" d="m213.719,111.229 42.779-24.709 42.777,24.709-42.777,24.713z"/>
<path fill="#faef88" d="m213.719,111.229 0,49.427 42.779,24.708 0-49.422z"/>
<path fill="#92d4f1" d="m256.487,185.338 0-49.42 42.779-24.712 0,49.422z"/>
<path fill="#c5d77a" d="m256.472,135.912 42.774-24.71 42.777,24.71-42.777,24.712z"/>
<path fill="#92d4f1" d="m256.472,135.912 0,49.421 42.774,24.713 0-49.422z"/>
<path fill="#f09255" d="m299.232,210.035 0-49.424 42.774-24.713 0,49.427z"/>
<path fill="#ec7c82" d="m299.254,209.972 42.777-24.708 42.776,24.708-42.776,24.715z"/>
<path fill="#d19ec4" d="m299.254,209.972 0,49.424 42.777,24.715 0-49.424z"/>
<path fill="#92d4f1" d="m342.023,284.082 0-49.424 42.776-24.707 0,49.424z"/>
<path fill="#f09255" d="m212.769,259.055 42.776-24.713 42.775,24.713-42.775,24.712z"/>
<path fill="#d19ec4" d="m212.769,259.055 0,49.424 42.776,24.708 0-49.42z"/>
<path fill="#92d4f1" d="m255.539,333.167 0-49.427 42.775-24.712 0,49.423z"/>
<path fill="#faef88" d="m255.461,283.736 42.775-24.708 42.776,24.708-42.776,24.715z"/>
<path fill="#c5d77a" d="m255.461,283.736 0,49.426 42.775,24.713 0-49.424z"/>
<path fill="#ec7c82" d="m298.229,357.847 0-49.425 42.775-24.709 0,49.424z"/>
<path fill="#f09255" d="m298.168,357.829 42.775-24.716 42.78,24.716-42.78,24.708z"/>
<path fill="#d19ec4" d="m298.168,357.829 0,49.423 42.775,24.709 0-49.424z"/>
<path fill="#faef88" d="m340.938,431.938 0-49.424 42.775-24.715 0,49.424z"/>
<path fill="none" d="m0,0h512v512h-512z"/>
</svg>
