<svg width="512" xmlns="http://www.w3.org/2000/svg" height="512" viewBox="0 0 512 512" xmlns:xlink="http://www.w3.org/1999/xlink" enable-background="new 0 0 512 512">
<path fill="#faef88" d="m384.337,185.363 .01-.006-.01-.005 0-.023-.02,.011-42.751-24.695-.255,.148 0-.42 .009-.005-.009-.005 0-.017-.014,.008-42.736-24.686 0-.003-.004,.002-.014-.009-.013,.007-42.738-24.686-.002,0 0-.011-.016,.009-42.753-24.696-.033,.019-42.56-24.588-42.775,24.714 0,49.425 42.775,24.712 0-.028 .011-.007 42.491,24.547 0,49.28-.006,.004 0,49.424 .002,.001 0,49.365-.015,.009 0,49.331-.037,.022 0,49.355 0,.067 0,49.355 42.775,24.712 0-.026 42.771-24.71 0-49.355 0-.038 .008-.005-.008-.005 0-.021 0-49.26 .033-.019 0-49.37 .02-.011 0-49.396 .009-.005-.009-.005 0-.02-.018,.01-.002-.001 .014-.009 0-49.291 .076,.043 0-.03 .248-.144 0,.445 42.775,24.712 0-.028 42.771-24.706z"/>
<path fill="#c5d77a" d="m127.653,86.426 42.775-24.714 42.779,24.714-42.779,24.713z"/>
<path fill="#ec7c82" d="m127.653,86.426 0,49.425 42.775,24.712 0-49.424z"/>
<g fill="#faef88">
<path d="m170.421,160.539 0-49.424 42.775-24.715 0,49.429z"/>
<path d="m212.874,431.866 42.775-24.712 42.779,24.712-42.779,24.712z"/>
<path d="m212.874,431.866 0,49.422 42.775,24.712 0-49.422z"/>
</g>
<path fill="#92d4f1" d="m255.644,505.977 0-49.425 42.776-24.712 0,49.424z"/>
<g fill="#f09255">
<path d="m212.874,382.511 42.779-24.712 42.775,24.712-42.775,24.71z"/>
<path d="m212.874,382.511 0,49.422 42.779,24.713 0-49.425z"/>
</g>
<path fill="#c5d77a" d="m255.644,456.621 0-49.424 42.776-24.713 0,49.425z"/>
<g fill="#d19ec4">
<path d="m212.911,333.158 42.775-24.715 42.777,24.715-42.777,24.71z"/>
<path d="m212.911,333.158 0,49.424 42.775,24.713 0-49.427z"/>
</g>
<g fill="#ec7c82">
<path d="m255.679,407.269 0-49.423 42.774-24.716 0,49.431z"/>
<path d="m212.926,283.779 42.779-24.712 42.777,24.712-42.777,24.712z"/>
</g>
<path fill="#c5d77a" d="m212.926,283.779 0,49.426 42.779,24.713 0-49.427z"/>
<g fill="#f09255">
<path d="m255.697,357.89 0-49.422 42.776-24.714 0,49.426z"/>
<path d="m212.924,234.359 42.775-24.716 42.778,24.716-42.778,24.708z"/>
</g>
<path fill="#92d4f1" d="m212.924,234.359 0,49.424 42.775,24.708 0-49.424z"/>
<path fill="#faef88" d="m255.69,308.468 0-49.423 42.777-24.714 0,49.423z"/>
<path fill="#c5d77a" d="m212.93,184.974 42.779-24.712 42.775,24.712-42.775,24.712z"/>
<path fill="#ec7c82" d="m212.93,184.974 0,49.424 42.779,24.715 0-49.427z"/>
<path fill="#d19ec4" d="m255.699,259.084 0-49.421 42.778-24.713 0,49.425z"/>
<path fill="#92d4f1" d="m170.244,110.991 42.777-24.71 42.779,24.71-42.779,24.715z"/>
<path fill="#f09255" d="m170.244,110.991 0,49.425 42.777,24.712 0-49.422z"/>
<path fill="#c5d77a" d="m213.012,185.102 0-49.424 42.778-24.71 0,49.422z"/>
<path fill="#d19ec4" d="m213.015,135.688 42.777-24.709 42.778,24.709-42.778,24.715z"/>
<path fill="#faef88" d="m213.015,135.688 0,49.425 42.777,24.714 0-49.424z"/>
<path fill="#92d4f1" d="m255.783,209.799 0-49.424 42.778-24.71 0,49.421z"/>
<path fill="#c5d77a" d="m255.766,160.368 42.777-24.71 42.777,24.71-42.777,24.715z"/>
<path fill="#92d4f1" d="m255.766,160.368 0,49.424 42.777,24.714 0-49.423z"/>
<path fill="#f09255" d="m298.533,234.48 0-49.424 42.778-24.71 0,49.425z"/>
<path fill="#d19ec4" d="m298.791,185.357 42.775-24.712 42.781,24.712-42.781,24.71z"/>
<path fill="#faef88" d="m298.791,185.357 0,49.42 42.775,24.712 0-49.422z"/>
<path fill="#f09255" d="m341.561,259.465 0-49.424 42.776-24.712 0,49.426z"/>
<path fill="none" d="m0,0h512v512h-512z"/>
</svg>
